<svg width="521" height="521" viewBox="0 0 521 521" fill="none" xmlns="http://www.w3.org/2000/svg">
<rect width="521" height="521" rx="124" fill="#1B98E0"/>
<path d="M110.52 310C98.1203 317.2 85.9203 324.267 73.9203 331.2C61.9203 338.133 49.7203 345.067 37.3203 352V327.4C46.1203 322.333 54.787 317.333 63.3203 312.4C71.987 307.467 80.5203 302.467 88.9203 297.4V195.4C92.5203 193.267 96.1203 191.2 99.7203 189.2C103.32 187.2 106.92 185.267 110.52 183.4V310ZM197.458 186C210.124 192.933 222.458 200 234.458 207.2C246.591 214.267 258.858 221.4 271.258 228.6C270.991 242.2 270.924 255.733 271.058 269.2C271.191 282.667 271.258 296.333 271.258 310.2V312.6C270.991 313.267 270.324 313.867 269.258 314.4C268.324 314.933 267.391 315.333 266.458 315.6C255.258 322.267 243.924 328.867 232.458 335.4C220.991 341.933 209.524 348.533 198.058 355.2C185.658 348.267 173.324 341.2 161.058 334C148.924 326.933 136.658 319.8 124.258 312.6C124.524 298.067 124.591 284.4 124.458 271.6C124.324 258.8 124.258 246.067 124.258 233.4V228.6C124.524 228.333 125.191 227.867 126.258 227.2C127.458 226.4 128.391 225.867 129.058 225.6C134.524 222.533 139.791 219.533 144.858 216.6C150.058 213.667 155.391 210.667 160.858 207.6C167.258 203.733 173.458 200.067 179.458 196.6C185.458 193.133 191.458 189.6 197.458 186ZM145.858 241.2V300.6C154.658 305.667 163.324 310.667 171.858 315.6C180.524 320.533 189.058 325.533 197.458 330.6C205.324 326.067 212.991 321.667 220.458 317.4C227.924 313.133 235.458 308.733 243.058 304.2C243.324 304.067 243.791 303.867 244.458 303.6C245.124 303.2 245.791 302.8 246.458 302.4C247.258 302 247.924 301.6 248.458 301.2C249.124 300.667 249.524 300.267 249.658 300C249.924 299.333 249.991 298.267 249.858 296.8C249.724 295.333 249.658 294 249.658 292.8V241.2C241.258 236.133 232.658 231.067 223.858 226C215.058 220.933 206.458 216 198.058 211.2C189.258 216 180.524 220.933 171.858 226C163.324 231.067 154.658 236.133 145.858 241.2ZM220.258 258C220.258 262.267 220.191 266.467 220.058 270.6C219.924 274.733 219.991 278.933 220.258 283.2C216.658 285.6 212.924 287.867 209.058 290C205.324 292.133 201.658 294.267 198.058 296.4C194.191 294.267 190.391 292.2 186.658 290.2C183.058 288.067 179.458 285.933 175.858 283.8C175.591 279 175.458 274.667 175.458 270.8C175.458 266.8 175.591 262.533 175.858 258C179.191 255.867 182.791 253.667 186.658 251.4C190.658 249.133 194.458 246.933 198.058 244.8C201.658 246.933 205.324 249.067 209.058 251.2C212.924 253.333 216.658 255.6 220.258 258ZM197.458 245.4C194.124 247.533 190.658 249.667 187.058 251.8C183.591 253.8 180.058 255.867 176.458 258C179.791 260.133 183.324 262.267 187.058 264.4C190.791 266.4 194.458 268.467 198.058 270.6C201.391 268.467 204.858 266.4 208.458 264.4C212.191 262.267 215.724 260.133 219.058 258C215.458 255.867 211.924 253.8 208.458 251.8C204.991 249.667 201.324 247.533 197.458 245.4ZM175.858 283.2C179.191 285.067 182.458 287 185.658 289C188.858 290.867 191.991 292.533 195.058 294C195.724 294.267 196.191 294.667 196.458 295.2C196.858 295.6 197.191 295.8 197.458 295.8V271.2C194.124 268.8 190.591 266.6 186.858 264.6C183.124 262.6 179.458 260.4 175.858 258V283.2ZM198.058 271.2V295.8C201.658 293.667 205.324 291.6 209.058 289.6C212.791 287.467 216.324 285.333 219.658 283.2C219.658 278.933 219.724 274.733 219.858 270.6C219.991 266.467 219.924 262.267 219.658 258C216.058 260.4 212.458 262.6 208.858 264.6C205.258 266.6 201.658 268.8 198.058 271.2ZM310.116 153.4V212.8C319.182 208 327.916 203.133 336.316 198.2C344.849 193.133 353.316 188.2 361.716 183.4C371.049 188.467 380.316 193.6 389.516 198.8C398.849 203.867 408.182 209.133 417.516 214.6L435.516 225.4V310C432.449 311.867 429.382 313.667 426.316 315.4C423.382 317.133 420.249 318.933 416.916 320.8C407.849 325.867 398.716 331.067 389.516 336.4C380.449 341.733 371.382 347.133 362.316 352.6C349.916 345.4 337.582 338.267 325.316 331.2C313.182 324.267 300.916 317.2 288.516 310V223C288.516 209.133 288.582 195.267 288.716 181.4C288.849 167.4 288.782 154.067 288.516 141.4V140.8C296.249 145.067 303.449 149.267 310.116 153.4ZM362.316 208C353.516 212.8 344.782 217.733 336.116 222.8C327.582 227.867 318.916 232.933 310.116 238V297.4C318.916 302.467 327.582 307.467 336.116 312.4C344.782 317.333 353.316 322.333 361.716 327.4C370.516 322.6 379.182 317.667 387.716 312.6C396.382 307.533 405.116 302.467 413.916 297.4V238C405.116 232.933 396.516 227.933 388.116 223C379.716 218.067 371.116 213.067 362.316 208ZM455.312 62.8L476.913 75.4V297.4C473.313 299.533 469.713 301.733 466.113 304C462.513 306.133 458.913 308.133 455.312 310V63.4V62.8ZM476.913 311.8V337C473.313 339.133 469.713 341.267 466.113 343.4C462.513 345.667 458.913 347.733 455.312 349.6V324.4L476.913 311.8Z" fill="white"/>
</svg>
